<svg xmlns="http://www.w3.org/2000/svg" aria-hidden="true" style="position:absolute;width:0;height:0;overflow:hidden">
  <defs>
    <symbol id="icon-Vector" viewBox="0 0 41 32">
      <path fill="#28a745" d="M38.196.197c-3.86.219-11.533 1.018-16.27 3.923-.327.2-.512.557-.512.929v25.676c0 .815.89 1.33 1.64.952 4.873-2.457 11.921-3.127 15.406-3.311 1.19-.063 2.115-1.018 2.115-2.163V2.363c.001-1.25-1.081-2.24-2.379-2.166zM18.649 4.12C13.913 1.216 6.24.417 2.38.197 1.082.124 0 1.114 0 2.363v23.84c0 1.146.925 2.101 2.115 2.163 3.486.183 10.538.855 15.411 3.313.748.378 1.635-.137 1.635-.95V5.035c0-.373-.185-.716-.512-.917z" style="fill:var(--color1, #28a745)"/>
    </symbol>
  </defs>
</svg>
